<svg width="1288" height="167" viewBox="0 0 1288 167" fill="none" xmlns="http://www.w3.org/2000/svg">
<path fill-rule="evenodd" clip-rule="evenodd" d="M0 24C0 15.5992 0 11.3988 1.6349 8.19014C3.073 5.36771 5.36771 3.073 8.19014 1.6349C11.3988 0 15.5992 0 24 0H1264C1272.4 0 1276.6 0 1279.81 1.6349C1282.63 3.073 1284.93 5.36771 1286.37 8.19014C1288 11.3988 1288 15.5992 1288 24V143C1288 151.401 1288 155.601 1286.37 158.81C1284.93 161.632 1282.63 163.927 1279.81 165.365C1276.6 167 1272.4 167 1264 167H24C15.5992 167 11.3988 167 8.19014 165.365C5.36771 163.927 3.073 161.632 1.6349 158.81C0 155.601 0 151.401 0 143V24Z" fill="#009247"/>
</svg>
